<?xml version="1.0" encoding="UTF-8"?>
<svg width="600" height="450" version="1.1" viewBox="0 0 600.00001 450.00001" xmlns="http://www.w3.org/2000/svg">
 <g transform="translate(0 -602.36)">
  <path d="m139.4 684.67h319.21v292.94h-319.21z" fill="#fff"/>
  <g transform="scale(1.0018 .99818)" fill="#00c4ff">
   <path d="m111.23 633.61h390.27v390.27h-390.27v-390.27zm192.52 145.81v13.67h-1.8226q-46.249 0-95.233-48.528-5.2401 8.8854-5.2401 17.315v10.48q0 15.948 19.138 34.63h-3.6453q-0.91131 0-17.315-5.2401v1.8226q0 26.656 33.035 43.288h3.4174v1.8226l-12.075 1.8226-3.4174-1.8226q0 1.8226-1.8226 1.8226 0-1.8226-1.8226-1.8226v1.8226q15.72 31.213 43.515 31.213-23.011 20.732-66.071 20.732v1.8226q35.314 17.315 59.008 17.315h20.96q73.817 0 116.19-86.803 6.8349-26.656 6.8349-39.87v-12.075q22.555-20.505 22.555-24.378h-1.5948q-12.758 5.2401-20.96 5.2401 17.315-17.543 17.315-24.378-21.872 10.48-31.213 10.48 0-6.3792-24.15-13.898h-13.898q-32.807 0-41.693 43.515z" style=""/>
  </g>
 </g>
</svg>
